<?xml version="1.0" encoding="utf-8"?>
<!-- Generator: Adobe Illustrator 16.0.3, SVG Export Plug-In . SVG Version: 6.00 Build 0)  -->
<!DOCTYPE svg PUBLIC "-//W3C//DTD SVG 1.1//EN" "http://www.w3.org/Graphics/SVG/1.1/DTD/svg11.dtd">
<svg version="1.1" id="Layer_1" xmlns="http://www.w3.org/2000/svg" xmlns:xlink="http://www.w3.org/1999/xlink" x="0px" y="0px"
	 width="900px" height="900px" viewBox="0 0 900 900" enable-background="new 0 0 900 900" xml:space="preserve">
<g>
	<path fill="none" d="M237.445,673.174c-5.288-0.245-10.372,0.591-15.39,2.54c-4.013,1.44-7.055,2.86-8.055,4.297v55.64
		c9,5.34,15.974,7.818,22.563,7.425c13.934-0.917,20.866-12.229,20.866-33.965C257.429,685.795,250.742,673.831,237.445,673.174z"/>
	<path fill="none" d="M554.948,673.38c-15.638,0.904-23.434,12.105-23.434,33.575c0,9.849,1.625,18.069,4.901,24.67
		c4.182,8.413,10.449,12.56,18.813,12.421c15.703-0.126,23.551-12.515,23.551-37.187c0-8.951-1.706-16.351-5.091-22.197
		C569.66,677.526,563.407,673.765,554.948,673.38z"/>
	<polygon fill="none" points="516.326,819 531.988,819 524.058,781.856 	"/>
	<polygon fill="none" points="605.775,819 621.438,819 613.507,781.856 	"/>
	<path fill="#306A98" d="M101.735,316h46.175c0.425,0,0.839,0.201,1.25,0.147c4.7-0.613,8.332-4.661,8.332-9.528
		c0-5.292-4.29-9.619-9.582-9.619H93.231c-4.809,0-8.873,3.721-9.5,8.489c-2.129,16.192-3.209,32.717-3.209,48.965
		c0,93.921,35.162,183.579,99.008,252.388c1.888,2.035,4.453,3.085,7.026,3.085c2.333,0,4.671-0.838,6.515-2.55
		c3.879-3.599,4.105-9.656,0.507-13.535c-3.165-3.41-6.237-6.885-9.252-10.4c-54.672-63.758-84.641-144.732-84.641-229.149
		C99.685,341.657,100.373,329,101.735,316z"/>
	<path fill="#306A98" d="M277.61,608.048c-5.382-3.761-10.616-7.684-15.712-11.746c-73.321-58.459-116.557-147.437-116.557-241.769
		c0-5.292-4.289-9.582-9.581-9.582s-9.582,4.29-9.582,9.582c0,63.097,18.226,123.929,51.159,175.837
		c22.992,36.236,53.142,68.129,89.301,93.387c1.671,1.167,3.583,1.729,5.478,1.729c3.024,0,6-1.43,7.864-4.097
		C283.009,617.051,281.949,611.078,277.61,608.048z"/>
	<path fill="#306A98" d="M486.048,507h-96.311c-5.292,0-10.737,4.596-10.737,9.888v69.559c0,0.383,0.607,0.758,0.649,1.128
		c0.56,4.76,4.889,8.453,9.799,8.453s8.936-3.693,9.495-8.453c0.042-0.37,0.057-0.745,0.057-1.128V526h78v61.679v0.137
		c0,5.292,4.209,9.581,9.5,9.581s9.5-4.289,9.5-9.581v-0.241v-70.687C496,511.596,491.341,507,486.048,507z"/>
	<path fill="#306A98" d="M239.73,663.814l-0.206-0.206c-12.137,0.129-22.746,2.671-31.231,7.619
		c-3.652,2.086-7.293,4.551-9.293,7.424v112.251l15,5.09v-50.575c9,5.465,17.3,8.071,25.622,7.801
		c11.025-0.246,19.623-4.804,25.848-13.653c5.586-7.816,8.34-17.644,8.34-29.486c0-13.282-2.82-24.142-8.422-32.613
		C259.382,668.226,250.82,663.675,239.73,663.814z M236.563,743.075C229.974,743.469,223,740.99,214,735.65v-55.64
		c1-1.437,4.042-2.856,8.055-4.297c5.018-1.949,10.143-2.785,15.431-2.54c13.297,0.657,19.963,12.621,19.963,35.937
		C257.449,730.847,250.497,742.158,236.563,743.075z"/>
	<path fill="#306A98" d="M347,735.464c-9,4.949-14.607,7.473-21.147,7.611c-6.533,0.126-12.208-1.524-16.331-4.978
		c-4.123-3.446-6.522-8.36-6.522-14.744v-59.745l-14,4.882v59.36c0,7.41,3.125,13.524,9.12,18.347
		c5.337,4.43,11.367,6.636,18.389,6.636c10.691,0,20.492-2.206,30.492-6.636v3.714c0,11.064-0.792,18.537-2.887,22.456
		c-2.604,4.81-7.231,8.396-14.144,10.731c-3.514,1.171-9.506,2.342-18.106,3.511l2.388,8.99c8.456-0.263,16.352-1.829,23.638-4.697
		c8.989-3.633,14.605-8.523,17.8-14.637c3.188-6.116,4.311-17.112,4.311-33.004V666h-13V735.464z"/>
	<path fill="#306A98" d="M400,636.861l-14,5.073V666h-9v10h9v54.906c0,6.788,2.421,12.107,6.899,15.966
		c4.497,3.852,10.559,5.769,18.626,5.769c1.434,0,3.475-0.063,4.475-0.201v-7.424c-5-0.27-9.244-1.315-11.706-3.141
		c-2.874-2.217-4.294-6.005-4.294-11.359V676h16v-10h-16V636.861z"/>
	<path fill="#306A98" d="M477.732,665.17c-10.811,0-20.732,3.32-29.732,9.95v-59.929l-15,4.493V752h15v-66.718
		c10-6.896,17.846-10.349,24.383-10.349c5.363,0,9.62,2.286,12.629,6.84c2.606,4.021,3.988,8.85,3.988,14.447V752h14v-60.272
		c0-7.553-2.278-13.87-6.975-18.941C491.349,667.713,485.285,665.17,477.732,665.17z"/>
	<path fill="#306A98" d="M555.136,663.608c-11.844,0-21.42,4.371-28.713,13.075c-6.896,8.208-10.343,18.289-10.343,30.271
		c0,12.75,3.183,23.357,9.565,31.829c7.037,9.488,16.79,14.249,29.303,14.249c12.627,0,22.517-4.761,29.676-14.249
		c6.511-8.472,9.771-19.079,9.771-31.829c0-11.982-3.448-22.063-10.342-30.271C576.622,667.979,566.984,663.608,555.136,663.608z
		 M555.229,744.046c-8.363,0.139-14.631-4.008-18.813-12.421c-3.276-6.601-4.901-14.821-4.901-24.67
		c0-21.47,7.796-32.671,23.434-33.575c8.459,0.385,14.712,4.146,18.74,11.282c3.385,5.847,5.091,13.246,5.091,22.197
		C578.779,731.531,570.932,743.92,555.229,744.046z"/>
	<path fill="#306A98" d="M656.62,664.595c-2.996-0.66-6.174-0.986-9.561-0.986c-4.949,0-10.794,0.845-17.297,2.545
		c-6.896,1.826-14.763,5.725-22.763,11.704V752h15v-72.38c5-4.289,12.297-6.508,19.072-6.634c6.381-0.139,11.415,1.592,15.254,5.165
		c3.834,3.591,5.674,8.566,5.674,14.947V752h14v-66.122c0-5.478-1.874-10.164-5.793-14.06
		C666.702,668.29,662.226,665.887,656.62,664.595z"/>
	<polygon fill="#306A98" points="378,779 391,779 391,837 399,837 399,779 411,779 411,772 378,772 	"/>
	<rect x="421" y="772" fill="#306A98" width="8" height="65"/>
	<path fill="#306A98" d="M450,821.906c0,6.527-3.038,8.734-8.158,9.01c-1.205,0-2.842,0-3.842-0.091v6.527
		c1,0.184,2.674,0.092,4.479,0.092C450.913,837.26,457,833.49,457,821.447V772h-7V821.906z"/>
	<path fill="#306A98" d="M490,822.182c0,5.792-1.826,9.286-7.449,9.286c-5.723,0-7.551-3.494-7.551-9.286V772h-9v49.814
		c0,9.746,4.707,16.273,15.449,16.273c10.844,0,15.551-6.527,15.551-16.273V772h-7V822.182z"/>
	<path fill="#306A98" d="M518.837,772l-13.454,65h7.229l2.711-12h17.771l2.711,12h7.831l-13.454-65H518.837z M516.326,819
		l7.731-37.144L531.988,819H516.326z"/>
	<polygon fill="#306A98" points="578,819.516 561.604,772 552,772 552,837 559,837 559,785.314 576.663,837 585,837 585,772 
		578,772 	"/>
	<path fill="#306A98" d="M608.285,772l-13.453,65h7.229l2.711-12h17.77l2.712,12h7.83l-13.453-65H608.285z M605.775,819
		l7.731-37.144L621.438,819H605.775z"/>
	<path fill="#306A98" d="M574.541,358.531c7.098-21.304,7.16-42.115,0.209-70.069C568.217,262.141,554.337,249,533.501,249H518
		v-14.604c0-20.862-16.814-38.805-39.965-42.663c-10.916-1.818-22.316-2.74-33.876-2.74l-1.039,0.002
		c-11.176,0.055-21.847,1.006-31.707,2.753C382.726,196.817,372,208.774,372,234.396V258h-15.298
		c-24.127,0-43.454,15.242-49.234,39.374c-6.334,26.274-6.334,42.875-0.002,69.151C313.527,391.783,329.302,406,350.746,406H365
		v14.854c0,19.22,13.778,34.405,38.454,41.661c12.047,3.541,23.118,5.263,34.233,5.263c11.228,0,22.943-1.719,35.107-5.252
		C497.858,455.267,512,440.467,512,420.854V397h21.501C559.438,397,568.286,377.373,574.541,358.531z M428,388.386v8.111
		c0,5.292,4.443,9.503,9.736,9.503H491v14.854c0,10.627-7.936,18.455-24.553,23.267c-10.412,3.023-19.795,4.493-29.188,4.493
		c-9.39,0-18.195-1.425-28.602-4.484c-9.363-2.753-24.657-9.438-24.657-23.276v-60.847c0-12.405,9.658-22.007,21.783-22.007h63.82
		C496.435,338,519,314.179,519,287.024V268h14.501c8.116,0,17.155,3.102,22.652,25.243c6.089,24.494,6.149,41.417,0.204,59.265
		c-6.654,20.04-11.78,25.492-22.856,25.492h-95.765C432.443,378,428,383.094,428,388.386z M363,387h-12.254
		c-12.364,0-20.656-8.421-24.648-25.055c-5.651-23.448-5.651-36.727,0.003-60.181C329.857,286.081,341.297,277,356.702,277h87.877
		c5.292,0,8.421-4.844,8.421-10.136v-8.113c0-5.292-3.129-9.75-8.421-9.75H391v-14.604c0-13.19,0.65-19.71,23.667-23.778
		c8.811-1.559,18.623-2.41,28.728-2.459l0.851-0.003c10.509,0,20.891,0.834,30.767,2.479C486.909,212.619,499,221.417,499,234.396
		v60.623C495,307.909,483.075,317,469.604,317h-63.82c-21.364,0-39.635,17.824-41.438,39.074c-0.827,3.504-1.345,7.614-1.345,11.329
		V387z"/>
	<path fill="#306A98" d="M409.973,218.166c-6.618,0-11.986,5.478-11.986,12.207c0,6.713,5.368,12.143,11.986,12.143
		c6.602,0,11.989-5.43,11.989-12.143C421.962,223.643,416.575,218.166,409.973,218.166z"/>
	<path fill="#306A98" d="M472.256,437.092c6.627,0,11.994-5.486,11.994-12.223c0-6.705-5.367-12.134-11.994-12.134
		c-6.6,0-11.988,5.43-11.988,12.134C460.268,431.606,465.656,437.092,472.256,437.092z"/>
	<path fill="#306A98" d="M791.888,50.791c-4.451-0.575-8.786,2.242-9.919,6.57L722.58,283.786L662.093,57.312
		c-1.151-4.313-5.1-7.108-9.554-6.527C648.11,51.366,645,55.141,645,59.607v136.192C598,133.834,522.185,93.826,438.114,93.826
		c-143.754,0-260.817,116.952-260.817,260.707c0,53.038,15.78,104.082,45.738,147.611c29.252,42.506,69.898,75.12,117.597,94.32
		c1.172,0.473,2.368,0.695,3.56,0.695c3.794,0,7.381-2.27,8.885-6.007c0.473-1.173,0.686-2.385,0.686-3.578
		c-0.002-3.793-2.266-7.385-6.001-8.889c-91.978-37.022-151.41-125.008-151.41-224.153c0-133.188,108.354-241.543,241.542-241.543
		s241.544,108.355,241.544,241.543c0,99.145-59.433,187.13-151.41,224.153c-3.734,1.504-5.997,5.096-5.998,8.889
		c-0.003,1.193,0.216,2.405,0.688,3.578c1.979,4.91,7.555,7.29,12.467,5.312c47.698-19.2,88.372-51.814,117.624-94.32
		c29.958-43.529,46.118-94.572,46.118-147.611c0-48.334-13.926-93.626-35.926-132.474c0-0.007,0-0.015,0-0.022v-94.591
		l51.301,193.697c1.041,3.895,4.243,6.857,8.272,6.857c0.006,0,0.013,0,0.02,0c4.038,0,8.312-2.991,9.335-6.897L783,128.701V592
		h-61.072c-4.914,0-8.897,4.088-8.897,9c0,4.914,3.983,9,8.897,9H790.4c4.914,0,9.6-4.723,9.6-9.636V59.615
		C800,55.141,796.326,51.362,791.888,50.791z"/>
</g>
</svg>
