<?xml version="1.0" encoding="utf-8"?>
<!-- Generator: Adobe Illustrator 16.0.3, SVG Export Plug-In . SVG Version: 6.00 Build 0)  -->
<!DOCTYPE svg PUBLIC "-//W3C//DTD SVG 1.1//EN" "http://www.w3.org/Graphics/SVG/1.1/DTD/svg11.dtd">
<svg version="1.1" id="Layer_1" xmlns="http://www.w3.org/2000/svg" xmlns:xlink="http://www.w3.org/1999/xlink" x="0px" y="0px"
	 width="400px" height="162px" viewBox="0 0 400 162" enable-background="new 0 0 400 162" xml:space="preserve">
<g>
	<g>
		<polygon fill="none" points="193.64,121 200.507,121 197.03,104.712 		"/>
	</g>
	<g>
		<path fill="none" d="M44.752,64.126c-1.961-0.091-3.876,0.219-5.736,0.942C37.528,65.602,36,66.128,36,66.661v20.63
			c3,1.979,5.953,2.898,8.396,2.754c5.166-0.341,7.751-4.534,7.751-12.595C52.147,68.806,49.682,64.37,44.752,64.126z"/>
	</g>
	<g>
		<path fill="none" d="M162.58,90.404c5.822-0.047,8.732-4.641,8.732-13.789c0-3.319-0.633-6.063-1.888-8.23
			c-1.494-2.646-3.812-4.041-6.949-4.184c-5.798,0.335-8.688,4.489-8.688,12.449c0,3.651,0.603,6.7,1.817,9.146
			C157.155,88.918,159.479,90.456,162.58,90.404z"/>
	</g>
	<g>
		<polygon fill="none" points="154.42,121 161.288,121 157.81,104.712 		"/>
	</g>
	<g>
		<path fill="#306A98" d="M45.599,60.656l-0.076-0.077c-4.5,0.048-8.183,0.991-11.329,2.825C32.84,64.178,31,65.092,31,66.157v41.62
			l5,1.888V90.912c4,2.026,6.443,2.993,9.529,2.893c4.088-0.091,7.291-1.781,9.599-5.063c2.071-2.898,3.1-6.542,3.1-10.933
			c0-4.925-1.042-8.951-3.119-12.092C52.882,62.292,49.711,60.604,45.599,60.656z M44.396,90.045C41.953,90.189,39,89.271,36,87.291
			v-20.63c0-0.532,1.528-1.059,3.016-1.593c1.86-0.723,3.775-1.033,5.736-0.942c4.93,0.244,7.395,4.68,7.395,13.324
			C52.147,85.511,49.562,89.704,44.396,90.045z"/>
	</g>
	<g>
		<path fill="#306A98" d="M85,87.222c-3,1.835-5.23,2.771-7.654,2.823c-2.423,0.046-4.463-0.566-5.992-1.847
			C69.826,86.92,69,85.099,69,82.731V60.579l-5,1.81v22.009c0,2.749,1.093,5.016,3.315,6.804c1.979,1.642,3.995,2.46,6.599,2.46
			c3.964,0,8.086-0.818,11.086-2.46v1.377c0,4.103-0.107,6.873-0.885,8.326c-0.965,1.782-2.587,3.112-5.15,3.979
			c-1.303,0.435-3.478,0.868-6.667,1.302l0.909,3.333c3.135-0.097,6.075-0.678,8.776-1.741c3.333-1.347,5.825-3.16,7.009-5.428
			C90.174,100.082,91,96.005,91,90.113V61h-6V87.222z"/>
	</g>
	<g>
		<path fill="#306A98" d="M105,50.662l-5,1.881V61h-4v4h4v20.532c0,2.517,0.814,4.489,2.475,5.919
			c1.667,1.429,3.895,2.14,6.885,2.14c0.532,0,1.64-0.022,1.64-0.075v-2.752c-2-0.1-3.462-0.487-4.375-1.165
			C105.56,88.777,105,87.373,105,85.387V65h6v-4h-6V50.662z"/>
	</g>
	<g>
		<path fill="#306A98" d="M136.505,67.315c0.966,1.491,1.495,3.281,1.495,5.357V93h5V71.005c0-2.8-0.765-5.143-2.506-7.023
			c-1.734-1.881-4.31-2.824-7.109-2.824c-4.009,0-7.384,1.23-11.384,3.689V42.627l-5,1.667V93h5V68.615
			c4-2.556,7.048-3.837,9.472-3.837C133.461,64.778,135.39,65.626,136.505,67.315z"/>
	</g>
	<g>
		<path fill="#306A98" d="M162.476,93.736c4.682,0,8.349-1.765,11.003-5.283c2.414-3.142,3.623-7.074,3.623-11.802
			c0-4.442-1.278-8.18-3.834-11.224c-2.755-3.227-6.329-4.848-10.722-4.848c-4.391,0-7.942,1.621-10.646,4.848
			c-2.556,3.044-3.835,6.782-3.835,11.224c0,4.728,1.18,8.66,3.547,11.802C154.22,91.972,157.836,93.736,162.476,93.736z
			 M162.476,64.202c3.137,0.143,5.455,1.538,6.949,4.184c1.255,2.167,1.888,4.911,1.888,8.23c0,9.148-2.91,13.742-8.732,13.789
			c-3.101,0.052-5.425-1.486-6.976-4.606c-1.214-2.446-1.817-5.495-1.817-9.146C153.787,68.691,156.678,64.538,162.476,64.202z"/>
	</g>
	<g>
		<path fill="#306A98" d="M200.174,60.945c-1.111-0.245-2.29-0.366-3.545-0.366c-1.835,0-3.889,0.313-6.3,0.944
			C187.771,62.2,185,63.646,182,65.863V93h5V66.516c3-1.59,4.728-2.413,7.239-2.459c2.367-0.051,4.233,0.59,5.657,1.915
			c1.421,1.332,2.104,3.176,2.104,5.542V93h6V68.837c0-2.031-1.014-3.769-2.467-5.213C204.232,62.315,202.253,61.424,200.174,60.945
			z"/>
	</g>
	<g>
		<path fill="#306A98" d="M224.362,71h9.646c0.089,0,0.176,0.102,0.261,0.091c0.982-0.128,1.741-1.019,1.741-2.036
			c0-1.105-0.896-2.055-2.002-2.055h-11.422c-1.006,0-1.854,0.854-1.985,1.849c-0.445,3.383-0.67,6.873-0.67,10.268
			c0,19.621,7.345,38.37,20.683,52.744c0.395,0.425,0.931,0.652,1.468,0.652c0.487,0,0.976-0.17,1.361-0.527
			c0.81-0.752,0.857-2.015,0.105-2.824c-0.661-0.713-1.303-1.438-1.933-2.173c-11.422-13.318-17.682-30.295-17.682-47.93
			C223.935,76.419,224.078,74,224.362,71z"/>
	</g>
	<g>
		<path fill="#306A98" d="M261.104,132.13c-1.124-0.785-2.218-1.604-3.282-2.453c-15.317-12.213-24.349-30.8-24.349-50.507
			c0-1.105-0.896-2.001-2.002-2.001s-2.002,0.896-2.002,2.001c0,13.182,3.808,25.89,10.688,36.733
			c4.803,7.57,11.102,14.232,18.655,19.509c0.349,0.244,0.748,0.361,1.145,0.361c0.631,0,1.254-0.299,1.643-0.855
			C262.231,134.012,262.01,132.764,261.104,132.13z"/>
	</g>
	<g>
		<path fill="#306A98" d="M304.647,111h-20.12c-1.105,0-2.527,0.981-2.527,2.087v14.531c0,0.079,0.27,0.158,0.279,0.235
			c0.115,0.994,1.09,1.766,2.117,1.766c1.025,0,1.671-0.771,1.787-1.766c0.009-0.077-0.184-0.156-0.184-0.235V115h17v12.875v0.029
			c0,1.105,0.895,2.001,2,2.001s2-0.896,2-2.001v-0.051v-14.767C307,111.981,305.753,111,304.647,111z"/>
	</g>
	<g>
		<path fill="#306A98" d="M323.134,79.985c1.482-4.452,1.496-8.851,0.043-14.689c-1.364-5.499-4.264-8.296-8.616-8.296H311v-2.927
			c0-4.358-3.352-7.9-8.188-8.707c-2.281-0.38-4.507-0.366-6.921-0.366h-0.215c-2.335,0-4.472,0.005-6.532,0.37
			C283.15,46.428,281,48.721,281,54.073V59h-3.374c-5.04,0-9.077,3.186-10.285,8.227c-1.323,5.489-1.323,8.997,0,14.486
			c1.266,5.277,4.562,8.287,9.041,8.287H279v3.025c0,4.015,3.059,7.187,8.213,8.702c2.518,0.74,4.92,1.101,7.242,1.101
			c2.345,0,4.803-0.359,7.344-1.098c5.236-1.517,8.201-4.608,8.201-8.705V88h4.561C319.979,88,321.827,83.921,323.134,79.985z
			 M292,86.242v1.694c0,1.105,1.449,2.063,2.555,2.063H306v3.025c0,2.22-1.816,3.854-5.289,4.86
			c-2.174,0.632-4.215,0.938-6.177,0.938c-1.961,0-3.505-0.298-5.68-0.937c-1.956-0.575-4.854-1.972-4.854-4.862V80.313
			c0-2.591,1.347-5.313,3.88-5.313h13.332C306.817,75,312,70.74,312,65.067V61h2.561c1.695,0,3.584,0.694,4.732,5.32
			c1.271,5.117,1.284,8.639,0.042,12.368c-1.39,4.188-2.461,5.313-4.774,5.313h-20.006C293.449,84,292,85.137,292,86.242z M279,86
			h-2.618c-2.583,0-4.315-1.782-5.148-5.258c-1.181-4.898-1.181-7.67,0-12.57c0.784-3.276,3.174-5.172,6.393-5.172h18.358
			c1.105,0,2.016-1.039,2.016-2.144v-1.695c0-1.105-0.91-2.161-2.016-2.161H285v-2.927c0-2.755,0.031-4.414,4.84-5.263
			c1.841-0.326,3.766-0.811,5.877-0.811h0.188c2.195,0,4.693,0.471,6.756,0.813c2.486,0.414,5.34,2.548,5.34,5.26v12.664
			C306,69.43,304.026,72,301.212,72H287.88c-4.463,0-8.251,3.388-8.628,7.826C279.08,80.559,279,81.083,279,81.858V86z"/>
	</g>
	<g>
		<path fill="#306A98" d="M288.755,50.683c-1.383,0-2.504,1.145-2.504,2.55c0,1.402,1.121,2.537,2.504,2.537
			c1.379,0,2.505-1.134,2.505-2.537C291.26,51.827,290.134,50.683,288.755,50.683z"/>
	</g>
	<g>
		<path fill="#306A98" d="M301.766,96.417c1.385,0,2.506-1.146,2.506-2.553c0-1.401-1.121-2.535-2.506-2.535
			c-1.379,0-2.504,1.134-2.504,2.535C299.262,95.271,300.387,96.417,301.766,96.417z"/>
	</g>
	<g>
		<path fill="#306A98" d="M368.422,15.717c-0.932-0.121-1.777,0.468-2.014,1.373L354.03,64.391L341.409,17.08
			c-0.24-0.901-0.985-1.485-1.915-1.364c-0.926,0.121-1.494,0.91-1.494,1.843V46.01c-10-12.945-25.73-21.303-43.293-21.303
			c-30.031,0-54.523,24.432-54.523,54.462c0,11.08,3.279,21.743,9.538,30.837c6.111,8.88,14.593,15.692,24.557,19.703
			c0.245,0.1,0.49,0.146,0.739,0.146c0.793,0,1.539-0.474,1.854-1.255c0.099-0.244,0.143-0.498,0.143-0.747
			c-0.002-0.792-0.475-1.543-1.255-1.856c-19.215-7.734-31.631-26.115-31.631-46.827c0-27.823,22.637-50.459,50.46-50.459
			s50.459,22.636,50.459,50.459c0,20.712-12.415,39.093-31.63,46.827c-0.78,0.313-1.253,1.064-1.254,1.856
			c0,0.249,0.046,0.503,0.145,0.747c0.413,1.026,1.578,1.522,2.604,1.109c9.964-4.011,18.461-10.823,24.572-19.703
			c6.258-9.094,9.327-19.757,9.327-30.837c0-10.097-2.812-19.559-7.812-27.674c0-0.001,0-0.003,0-0.004v-19.76l11.022,40.65
			c0.219,0.814,1.194,1.619,2.035,1.619c0.002,0,0.003,0,0.005,0c0.843,0,1.395-0.812,1.609-1.627L366,31.993V129h-12.076
			c-1.027,0-1.859,0.473-1.859,1.5s0.832,1.5,1.859,1.5h14.304c1.026,0,1.772-0.448,1.772-1.475V17.561
			C370,16.626,369.349,15.836,368.422,15.717z"/>
	</g>
	<g>
		<path fill="#306A98" d="M99.762,131.299V105.74h-5.724v-2.886h14.909v2.886h-5.724v25.559H99.762z"/>
		<path fill="#306A98" d="M116.576,102.854v28.444h-3.461v-28.444H116.576z"/>
		<path fill="#306A98" d="M120.125,128.414c0.577,0.04,1.198,0.04,1.73,0.04c2.263-0.121,3.638-1.097,3.638-3.981v-21.618h3.417
			v21.415c0,5.322-2.884,6.988-6.612,7.07c-0.798,0-1.42,0.04-2.174-0.041V128.414z"/>
		<path fill="#306A98" d="M136.496,124.594c0,2.561,1.109,4.104,3.639,4.104c2.484,0,3.594-1.544,3.594-4.104v-21.739h3.239v21.577
			c0,4.308-2.174,7.192-6.966,7.192c-4.748,0-6.922-2.885-6.922-7.192v-21.577h3.417V124.594z"/>
		<path fill="#306A98" d="M154.775,125.569l-1.198,5.729h-3.195l5.946-28.444h5.014l5.946,28.444h-3.461l-1.198-5.729H154.775z
			 M155.219,122.847h6.922l-3.505-16.416L155.219,122.847z"/>
		<path fill="#306A98" d="M173.941,131.299h-3.106v-28.444h4.393l7.188,20.562v-20.562h3.062v28.444h-3.594l-7.943-22.999V131.299z"
			/>
		<path fill="#306A98" d="M194.306,125.569l-1.198,5.729h-3.194l5.946-28.444h5.014l5.945,28.444h-3.461l-1.197-5.729H194.306z
			 M194.75,122.847h6.922l-3.506-16.416L194.75,122.847z"/>
	</g>
</g>
</svg>
